<svg width="51" height="50" viewBox="0 0 51 50" fill="none" xmlns="http://www.w3.org/2000/svg">
<path d="M43.75 21.25C42.4942 21.25 41.4356 22.0996 41.1055 23.25H38.75C38.3359 23.25 38 23.5859 38 24C38 24.4141 38.3359 24.75 38.75 24.75H41.1055C41.4355 25.9004 42.4902 26.75 43.75 26.75C45.2656 26.75 46.5 25.5156 46.5 24C46.5 22.4844 45.2656 21.25 43.75 21.25ZM43.75 25.25C43.0606 25.25 42.5 24.6895 42.5 24C42.5 23.3106 43.0606 22.75 43.75 22.75C44.4395 22.75 45 23.3106 45 24C45 24.6895 44.4395 25.25 43.75 25.25ZM43.75 33.25C43.5605 33.25 43.3691 33.2695 43.1895 33.3105L41.375 30.5859C41.2344 30.375 41 30.25 40.75 30.25H38.75C38.3359 30.25 38 30.5859 38 31C38 31.4141 38.3359 31.75 38.75 31.75H40.3496L41.8555 34.0098C41.3301 34.5098 41 35.2149 41 36C41 37.5156 42.2344 38.75 43.75 38.75C45.2656 38.75 46.5 37.5156 46.5 36C46.5 34.4844 45.2656 33.25 43.75 33.25ZM43.75 37.25C43.0606 37.25 42.5 36.6895 42.5 36C42.5 35.3106 43.0606 34.75 43.75 34.75C44.4395 34.75 45 35.3106 45 36C45 36.6895 44.4395 37.25 43.75 37.25ZM38.75 17.75H40.75C41 17.75 41.2344 17.625 41.375 17.4141L43.1895 14.6895C43.3691 14.7285 43.5586 14.75 43.75 14.75C45.2656 14.75 46.5 13.5156 46.5 12C46.5 10.4844 45.2656 9.25 43.75 9.25C42.2344 9.25 41 10.4844 41 12C41 12.7793 41.3301 13.4903 41.8555 13.9903L40.3496 16.25H38.75C38.3359 16.25 38 16.5859 38 17C38 17.4141 38.3359 17.75 38.75 17.75ZM43.75 10.75C44.4395 10.75 45 11.3106 45 12C45 12.6895 44.4395 13.25 43.75 13.25C43.0606 13.25 42.5 12.6895 42.5 12C42.5 11.3106 43.0606 10.75 43.75 10.75ZM12.75 23.25H10.3946C10.0645 22.0996 9.0098 21.25 7.75 21.25C6.2344 21.25 5 22.4844 5 24C5 25.5156 6.2344 26.75 7.75 26.75C9.00585 26.75 10.0645 25.9004 10.3946 24.75H12.75C13.1641 24.75 13.5 24.4141 13.5 24C13.5 23.5859 13.1641 23.25 12.75 23.25ZM7.75 25.25C7.06055 25.25 6.5 24.6895 6.5 24C6.5 23.3106 7.06055 22.75 7.75 22.75C8.43945 22.75 9 23.3106 9 24C9 24.6895 8.43945 25.25 7.75 25.25ZM12.75 30.25H10.75C10.5 30.25 10.2656 30.375 10.125 30.5859L8.31055 33.3105C8.13086 33.2715 7.94141 33.25 7.75 33.25C6.2344 33.25 5 34.4844 5 36C5 37.5156 6.2344 38.75 7.75 38.75C9.2656 38.75 10.5 37.5156 10.5 36C10.5 35.2207 10.1699 34.5097 9.64455 34.0097L11.1504 31.75H12.75C13.1641 31.75 13.5 31.4141 13.5 31C13.5 30.5859 13.1641 30.25 12.75 30.25ZM7.75 37.25C7.06055 37.25 6.5 36.6895 6.5 36C6.5 35.3106 7.06055 34.75 7.75 34.75C8.43945 34.75 9 35.3106 9 36C9 36.6895 8.43945 37.25 7.75 37.25ZM12.75 16.25H11.1504L9.64455 13.9903C10.17 13.4903 10.5 12.7852 10.5 12C10.5 10.4844 9.2656 9.25 7.75 9.25C6.2344 9.25 5 10.4844 5 12C5 13.5156 6.2344 14.75 7.75 14.75C7.93946 14.75 8.13086 14.7305 8.31055 14.6895L10.125 17.4141C10.2656 17.625 10.5 17.75 10.75 17.75H12.75C13.1641 17.75 13.5 17.4141 13.5 17C13.5 16.5859 13.1641 16.25 12.75 16.25ZM6.5 12C6.5 11.3106 7.06055 10.75 7.75 10.75C8.43945 10.75 9 11.3106 9 12C9 12.6895 8.43945 13.25 7.75 13.25C7.06055 13.25 6.5 12.6895 6.5 12ZM25.75 9.25C20.574 9.25 15 10.4258 15 13V37C15 39.5742 20.574 40.75 25.75 40.75C30.926 40.75 36.5 39.5742 36.5 37V13C36.5 10.4258 30.926 9.25 25.75 9.25ZM35 23.039V29C35 29.6758 31.8555 31.25 25.75 31.25C19.6446 31.25 16.5 29.6758 16.5 29V23.039C16.5195 23.0488 16.5391 23.0585 16.5605 23.0742C16.6504 23.1249 16.7402 23.1738 16.8359 23.2245C16.8711 23.2441 16.9102 23.2597 16.9453 23.2792C17.0508 23.33 17.1602 23.3788 17.2754 23.4296C17.2949 23.4394 17.3145 23.4492 17.3398 23.4589C17.4746 23.5136 17.6152 23.5683 17.7539 23.623C17.793 23.6386 17.834 23.6523 17.873 23.662C17.9824 23.7011 18.0977 23.7421 18.2129 23.7773C18.2578 23.7929 18.2988 23.8066 18.3438 23.8163C18.498 23.8613 18.6543 23.9121 18.8145 23.957C18.9746 24.0019 19.1445 24.0429 19.3086 24.082C19.3594 24.0917 19.4082 24.1074 19.459 24.1171C19.5898 24.1464 19.7188 24.1777 19.8535 24.2031C19.8984 24.2128 19.9492 24.2226 19.9941 24.2324C20.1699 24.2675 20.3496 24.3027 20.5293 24.332C20.5547 24.3378 20.584 24.3417 20.6094 24.3476C20.7637 24.373 20.9238 24.3984 21.084 24.4218C21.1387 24.4316 21.1934 24.4374 21.248 24.4472C21.3926 24.4667 21.543 24.4863 21.6934 24.5078C21.7383 24.5136 21.7793 24.5175 21.8242 24.5234C22.0137 24.5488 22.2051 24.5683 22.3984 24.5878C22.4433 24.5937 22.4844 24.5976 22.5293 24.5976C22.6836 24.6132 22.8398 24.6269 23 24.6367C23.0547 24.6425 23.1152 24.6464 23.1699 24.6523C23.3398 24.6679 23.5058 24.6777 23.6757 24.6874C23.705 24.6874 23.7363 24.6933 23.7656 24.6933C23.9609 24.7031 24.1601 24.7128 24.3613 24.7226C24.4121 24.7226 24.4668 24.7285 24.5156 24.7285C24.6699 24.7343 24.8203 24.7382 24.9765 24.7441C25.0312 24.7441 25.0918 24.7499 25.1464 24.7499C25.3457 24.7558 25.541 24.7558 25.7421 24.7558C25.9414 24.7558 26.1367 24.7558 26.3378 24.7499C26.3925 24.7499 26.4531 24.7499 26.5078 24.7441C26.6621 24.7382 26.8125 24.7343 26.9687 24.7285C27.0195 24.7285 27.0742 24.7226 27.123 24.7226C27.3222 24.7128 27.5175 24.707 27.7187 24.6933C27.748 24.6933 27.7792 24.6874 27.8085 24.6874C27.9785 24.6777 28.1484 24.6679 28.3144 24.6523C28.3691 24.6464 28.4296 24.6425 28.4843 24.6367C28.6386 24.621 28.7988 24.6113 28.955 24.5976C28.9999 24.5917 29.041 24.5878 29.0859 24.5878C29.2812 24.5683 29.4706 24.5488 29.6601 24.5234C29.705 24.5175 29.746 24.5136 29.7909 24.5078C29.9413 24.4882 30.0917 24.4687 30.2363 24.4472C30.2909 24.4374 30.3456 24.4316 30.4003 24.4218C30.5605 24.3964 30.7206 24.371 30.8749 24.3476C30.9003 24.3417 30.9296 24.3378 30.955 24.332C31.1347 24.3027 31.3144 24.2675 31.4902 24.2324C31.5351 24.2226 31.5859 24.2128 31.6308 24.2031C31.7655 24.1738 31.8964 24.1484 32.0253 24.1171C32.0761 24.1074 32.1249 24.0917 32.1757 24.082C32.3456 24.0429 32.5116 24.0019 32.6698 23.957C32.83 23.912 32.9843 23.8671 33.1405 23.8222C33.1855 23.8066 33.2304 23.7929 33.2753 23.7831C33.3905 23.748 33.5058 23.7089 33.6152 23.6679C33.6542 23.6523 33.6952 23.6386 33.7343 23.6288C33.8788 23.5781 34.0136 23.5234 34.1484 23.4648C34.1679 23.455 34.1874 23.4453 34.2128 23.4355C34.328 23.3847 34.4335 23.3359 34.5429 23.2851C34.582 23.2656 34.6171 23.2499 34.6523 23.2304C34.748 23.1796 34.8417 23.1347 34.9277 23.08C34.9609 23.0605 34.9805 23.0507 35 23.039ZM35 15.039V21C35 21.6758 31.8555 23.25 25.75 23.25C19.6446 23.25 16.5 21.6758 16.5 21V15.039C16.5195 15.0488 16.5391 15.0585 16.5605 15.0742C16.6504 15.1249 16.7402 15.1738 16.8359 15.2245C16.8711 15.2441 16.9102 15.2597 16.9453 15.2792C17.0508 15.33 17.1602 15.3788 17.2754 15.4296C17.2949 15.4394 17.3145 15.4492 17.3398 15.4589C17.4746 15.5136 17.6152 15.5683 17.7539 15.623C17.793 15.6386 17.834 15.6523 17.873 15.662C17.9824 15.7011 18.0977 15.7421 18.2129 15.7773C18.2578 15.7929 18.2988 15.8066 18.3438 15.8163C18.498 15.8613 18.6543 15.912 18.8145 15.957C18.9746 16.0019 19.1445 16.0429 19.3086 16.082C19.3594 16.0917 19.4082 16.1074 19.459 16.1171C19.5898 16.1464 19.7188 16.1777 19.8535 16.2031C19.8984 16.2128 19.9492 16.2226 19.9941 16.2324C20.1699 16.2675 20.3496 16.3027 20.5293 16.332C20.5547 16.3378 20.584 16.3417 20.6094 16.3476C20.7637 16.373 20.9238 16.3984 21.084 16.4218C21.1387 16.4316 21.1934 16.4374 21.248 16.4472C21.3926 16.4667 21.543 16.4863 21.6934 16.5078C21.7383 16.5136 21.7793 16.5175 21.8242 16.5234C22.0137 16.5488 22.2051 16.5683 22.3984 16.5878C22.4433 16.5937 22.4844 16.5976 22.5293 16.5976C22.6836 16.6132 22.8398 16.6269 23 16.6367C23.0547 16.6425 23.1152 16.6464 23.1699 16.6523C23.3398 16.6679 23.5058 16.6777 23.6757 16.6874C23.705 16.6874 23.7363 16.6933 23.7656 16.6933C23.9609 16.7031 24.1601 16.7128 24.3613 16.7226C24.4121 16.7226 24.4668 16.7285 24.5156 16.7285C24.6699 16.7343 24.8203 16.7382 24.9765 16.7441C25.0312 16.7441 25.0918 16.7499 25.1464 16.7499C25.3457 16.7558 25.541 16.7558 25.7421 16.7558C25.9414 16.7558 26.1367 16.7558 26.3378 16.7499C26.3925 16.7499 26.4531 16.7499 26.5078 16.7441C26.6621 16.7382 26.8125 16.7343 26.9687 16.7285C27.0195 16.7285 27.0742 16.7226 27.123 16.7226C27.3222 16.7128 27.5175 16.707 27.7187 16.6933C27.748 16.6933 27.7792 16.6874 27.8085 16.6874C27.9785 16.6777 28.1484 16.6679 28.3144 16.6523C28.3691 16.6464 28.4296 16.6425 28.4843 16.6367C28.6386 16.621 28.7988 16.6113 28.955 16.5976C28.9999 16.5917 29.041 16.5878 29.0859 16.5878C29.2812 16.5683 29.4706 16.5488 29.6601 16.5234C29.705 16.5175 29.746 16.5136 29.7909 16.5078C29.9413 16.4882 30.0917 16.4687 30.2363 16.4472C30.2909 16.4374 30.3456 16.4316 30.4003 16.4218C30.5605 16.3964 30.7206 16.371 30.8749 16.3476C30.9003 16.3417 30.9296 16.3378 30.955 16.332C31.1347 16.3027 31.3144 16.2675 31.4902 16.2324C31.5351 16.2226 31.5859 16.2128 31.6308 16.2031C31.7655 16.1738 31.8964 16.1484 32.0253 16.1171C32.0761 16.1074 32.1249 16.0917 32.1757 16.082C32.3456 16.0429 32.5116 16.0019 32.6698 15.957C32.83 15.912 32.9843 15.8671 33.1405 15.8222C33.1855 15.8066 33.2304 15.7929 33.2753 15.7831C33.3905 15.748 33.5058 15.7089 33.6152 15.6679C33.6542 15.6523 33.6952 15.6386 33.7343 15.6288C33.8788 15.5781 34.0136 15.5234 34.1484 15.4648C34.1679 15.455 34.1874 15.4453 34.2128 15.4355C34.328 15.3847 34.4335 15.3359 34.5429 15.2851C34.582 15.2656 34.6171 15.2499 34.6523 15.2304C34.748 15.1796 34.8417 15.1347 34.9277 15.08C34.9609 15.0605 34.9805 15.0507 35 15.039ZM25.75 10.75C31.8555 10.75 35 12.3242 35 13C35 13.6758 31.8555 15.25 25.75 15.25C19.6446 15.25 16.5 13.6758 16.5 13C16.5 12.3242 19.6446 10.75 25.75 10.75ZM35 37C35 37.6758 31.8555 39.25 25.75 39.25C19.6446 39.25 16.5 37.6758 16.5 37V31.039C16.5195 31.0487 16.5391 31.0585 16.5605 31.0682C16.6504 31.119 16.7461 31.1679 16.8457 31.2186C16.8809 31.2382 16.916 31.2538 16.9551 31.2733C17.0645 31.3241 17.1758 31.3729 17.291 31.4237C17.3105 31.4335 17.3301 31.4433 17.3516 31.4491C17.4863 31.5038 17.627 31.5585 17.7656 31.6132C17.8047 31.6288 17.8457 31.6425 17.8848 31.6522C17.9941 31.6913 18.1094 31.7323 18.2246 31.7675C18.2695 31.7831 18.3105 31.7968 18.3555 31.8065C18.5098 31.8515 18.666 31.9022 18.8262 31.9472C18.9863 31.9921 19.1563 32.0331 19.3203 32.0722C19.3711 32.0819 19.4199 32.0975 19.4707 32.1073C19.6016 32.1366 19.7305 32.1679 19.8613 32.1933C19.9121 32.203 19.957 32.2128 20.0059 32.2225C20.1816 32.2577 20.3555 32.2929 20.5352 32.3222C20.5645 32.328 20.5996 32.3319 20.6309 32.3378C20.7813 32.3632 20.9356 32.3886 21.0918 32.412C21.1523 32.4218 21.207 32.4276 21.2676 32.4374C21.4121 32.4569 21.5566 32.4765 21.7031 32.4979C21.748 32.5038 21.793 32.5077 21.8438 32.5175C22.0332 32.5429 22.2246 32.5624 22.4141 32.5819C22.459 32.5878 22.5039 32.5917 22.5488 32.5976C22.6992 32.6132 22.8535 32.6268 23.0098 32.6366C23.0703 32.6425 23.1289 32.6464 23.1855 32.6522C23.3496 32.6679 23.5215 32.6776 23.6914 32.6874C23.7207 32.6874 23.7519 32.6933 23.7812 32.6933C23.9765 32.703 24.1758 32.7128 24.3711 32.7226C24.4258 32.7226 24.4805 32.7284 24.5312 32.7284C24.6816 32.7343 24.8359 32.7382 24.9863 32.744C25.041 32.744 25.1016 32.7499 25.1562 32.7499C25.3555 32.7558 25.5508 32.7558 25.7519 32.7558C25.9512 32.7558 26.1465 32.7558 26.3476 32.7499C26.4023 32.7499 26.4629 32.7499 26.5176 32.744C26.6679 32.7382 26.8222 32.7343 26.9726 32.7284C27.0273 32.7284 27.082 32.7226 27.1328 32.7226C27.3281 32.7128 27.5273 32.7069 27.7226 32.6933C27.7519 32.6933 27.7832 32.6874 27.8125 32.6874C27.9824 32.6776 28.1484 32.6679 28.3183 32.6522C28.3789 32.6464 28.4375 32.6425 28.4941 32.6366C28.6484 32.621 28.7988 32.6112 28.9551 32.5976C29 32.5917 29.0449 32.5878 29.0898 32.5819C29.2793 32.5624 29.4707 32.5429 29.6601 32.5175C29.705 32.5116 29.75 32.5077 29.8007 32.4979C29.9453 32.4784 30.0898 32.4589 30.2363 32.4374C30.2968 32.4276 30.3515 32.4218 30.4121 32.412C30.5664 32.3866 30.7226 32.3612 30.873 32.3378C30.9023 32.3319 30.9375 32.328 30.9687 32.3222C31.1484 32.2929 31.3242 32.2577 31.498 32.2225C31.5488 32.2128 31.5937 32.203 31.6425 32.1933C31.7734 32.1679 31.9023 32.1386 32.0332 32.1073C32.084 32.0975 32.1328 32.0819 32.1836 32.0722C32.3535 32.0331 32.5195 31.9921 32.6777 31.9472C32.8379 31.9022 32.9922 31.8573 33.1484 31.8124C33.1933 31.7968 33.2383 31.7831 33.2832 31.7733C33.3984 31.7382 33.5136 31.6991 33.623 31.6581C33.6621 31.6425 33.7031 31.6288 33.7422 31.619C33.8867 31.5683 34.0273 31.5136 34.1562 31.455C34.1758 31.4452 34.1953 31.4354 34.2168 31.4296C34.332 31.3788 34.4414 31.33 34.5527 31.2792C34.5879 31.2597 34.623 31.244 34.6621 31.2245C34.7617 31.1737 34.8574 31.1249 34.9472 31.0741C34.9668 31.0643 34.9863 31.0546 35.0078 31.0448L34.9941 36.9998L35 37Z" fill="#FF00C5"/>
</svg>
