<svg width="51" height="50" viewBox="0 0 51 50" fill="none" xmlns="http://www.w3.org/2000/svg">
<path d="M29.9202 15.6834C30.9534 16.5545 31.9651 17.4842 32.9495 18.4666C41.52 27.0391 45.465 37.1816 41.1995 41.4491C38.6956 43.951 34.182 43.6678 28.9805 41.1268C28.3613 40.8241 28.1035 40.074 28.4063 39.4549C28.709 38.8338 29.459 38.5779 30.0782 38.8807C34.4278 41.0057 37.8887 41.2225 39.4317 39.6815C42.3243 36.7869 38.8828 27.9355 31.1817 20.236C30.2481 19.3024 29.2871 18.4196 28.3086 17.5954C27.7813 17.152 27.7149 16.363 28.1582 15.8356C28.6035 15.3063 29.3929 15.24 29.9202 15.6834ZM35.5822 28.4314C36.1095 28.8786 36.174 29.6677 35.7267 30.1931C34.8771 31.195 33.9493 32.1989 32.9493 33.1989C24.3768 41.7694 14.2343 45.7144 9.96883 41.4489C7.46688 38.947 7.74813 34.4374 10.2872 29.2379C10.5899 28.6188 11.338 28.361 11.9571 28.6637C12.5782 28.9664 12.836 29.7145 12.5332 30.3356C10.4102 34.6813 10.1953 38.1401 11.7363 39.6811C14.6289 42.5737 23.4803 39.1323 31.1818 31.4311C32.1349 30.478 33.0158 29.5249 33.8205 28.5757C34.2678 28.0503 35.0549 27.986 35.5822 28.4314ZM22.1777 10.5349C22.7968 10.8376 23.0546 11.5876 22.7518 12.2068C22.4491 12.8279 21.7011 13.0857 21.0799 12.7829C16.7342 10.6599 13.2774 10.445 11.7359 11.986C8.8414 14.8786 12.2848 23.73 19.9859 31.4315C20.9157 32.3632 21.8746 33.2421 22.8512 34.0643C23.3786 34.5096 23.445 35.2987 23.0016 35.826C22.5563 36.3534 21.7672 36.4217 21.2399 35.9764C20.2086 35.1092 19.1989 34.1795 18.2164 33.199C9.64594 24.6265 5.70094 14.484 9.96844 10.2185C12.4684 7.71659 16.9786 7.99775 22.1777 10.5349ZM25.6503 21.4939C25.9062 21.5603 26.1015 21.7595 26.164 22.0154L26.6816 24.1755C26.7714 24.5485 27.0566 24.8454 27.4277 24.949L29.3339 25.4841C29.6835 25.5818 29.8867 25.9431 29.789 26.2927C29.7245 26.5212 29.5409 26.699 29.3105 26.7536L27.5038 27.1872C27.1073 27.2829 26.8027 27.5954 26.7148 27.9939L26.1777 30.4568C26.0976 30.8318 25.7265 31.0701 25.3515 30.988C25.0859 30.9294 24.8789 30.7224 24.8222 30.4568L24.2851 27.9978C24.1992 27.5974 23.8886 27.2849 23.4922 27.1911L21.6211 26.7497C21.2656 26.6677 21.0469 26.3122 21.1308 25.9568C21.1855 25.7224 21.3633 25.5369 21.5937 25.4724L23.4746 24.9451C23.8379 24.8435 24.1211 24.5564 24.2148 24.1912L24.7851 22.0017C24.8828 21.6228 25.2714 21.3943 25.6503 21.4939ZM41.1993 10.2184C43.7032 12.7223 43.422 17.2479 40.879 22.4549C40.5763 23.076 39.8262 23.3318 39.2071 23.0291C38.586 22.7263 38.3282 21.9783 38.6329 21.3572C40.7598 17.0017 40.9766 13.5312 39.4317 11.9862C36.5372 9.0916 27.6857 12.535 19.9862 20.2362C19.0487 21.1717 18.162 22.1366 17.3358 23.119C16.8905 23.6483 16.1034 23.7147 15.5741 23.2713C15.0468 22.826 14.9784 22.0389 15.4237 21.5096C16.2948 20.4725 17.2304 19.4549 18.2167 18.4666C26.7892 9.89615 36.9318 5.95085 41.1993 10.2184Z" fill="#21325E"/>
</svg>
