<svg width="51" height="50" viewBox="0 0 51 50" fill="none" xmlns="http://www.w3.org/2000/svg">
<path d="M16.5004 8.49979C14.3754 8.49979 12.5883 10.0095 12.1254 11.9998H8.50036C8.46911 11.9978 8.43786 11.9978 8.40661 11.9998C8.14098 12.0115 7.89101 12.1287 7.71326 12.326C7.53357 12.5213 7.44177 12.781 7.45349 13.0467C7.46521 13.3123 7.5824 13.5623 7.77966 13.74C7.97497 13.9197 8.23474 14.0115 8.50036 13.9998H12.1254C12.5824 15.9978 14.3695 17.4998 16.5004 17.4998C18.6312 17.4998 20.4183 15.9978 20.8754 13.9998H42.5004C42.7679 14.0037 43.0258 13.9002 43.2172 13.7127C43.4066 13.5232 43.514 13.2674 43.514 12.9998C43.514 12.7322 43.4066 12.4763 43.2172 12.2869C43.0258 12.0994 42.7679 11.9959 42.5004 11.9998H20.8754C20.4125 10.0095 18.6254 8.49979 16.5004 8.49979ZM16.5004 10.4998C17.893 10.4998 19.0004 11.6072 19.0004 12.9998C19.0004 14.3924 17.893 15.4998 16.5004 15.4998C15.1078 15.4998 14.0004 14.3924 14.0004 12.9998C14.0004 11.6072 15.1078 10.4998 16.5004 10.4998ZM34.5004 20.4998C32.0277 20.4998 30.0004 22.5271 30.0004 24.9998C30.0004 27.4724 32.0277 29.4998 34.5004 29.4998C36.6312 29.4998 38.4183 27.9978 38.8754 25.9998H42.5004C42.7679 26.0037 43.0258 25.9002 43.2172 25.7127C43.4066 25.5232 43.514 25.2674 43.514 24.9998C43.514 24.7322 43.4066 24.4763 43.2172 24.2869C43.0258 24.0994 42.7679 23.9959 42.5004 23.9998H38.8754C38.4125 22.0095 36.6254 20.4998 34.5004 20.4998ZM24.3909 20.9842C24.0022 21.0213 23.6702 21.283 23.5432 21.6521C23.4143 22.0232 23.5139 22.4334 23.7971 22.7029L25.094 23.9998H8.50001C8.46876 23.9979 8.43751 23.9979 8.40626 23.9998C8.14064 24.0115 7.89066 24.1287 7.71291 24.326C7.53322 24.5213 7.44143 24.7811 7.45315 25.0467C7.46487 25.3123 7.58205 25.5623 7.77932 25.74C7.97463 25.9197 8.2344 26.0115 8.50002 25.9998H25.094L23.7971 27.2811C23.6018 27.4666 23.4905 27.7225 23.4866 27.9901C23.4827 28.2596 23.5862 28.5174 23.7756 28.7088C23.9651 28.9002 24.2229 29.0076 24.4905 29.0057C24.76 29.0057 25.0159 28.8963 25.2034 28.7029L28.2034 25.7029C28.3928 25.5154 28.5003 25.2596 28.5003 24.992C28.5003 24.7244 28.3928 24.4685 28.2034 24.281L25.2034 21.281C24.9924 21.0642 24.6936 20.9549 24.3909 20.9842ZM34.5004 22.4998C35.893 22.4998 37.0004 23.6072 37.0004 24.9998C37.0004 26.3924 35.893 27.4998 34.5004 27.4998C33.1078 27.4998 32.0004 26.3924 32.0004 24.9998C32.0004 23.6072 33.1078 22.4998 34.5004 22.4998ZM16.5004 32.4998C14.3754 32.4998 12.5883 34.0095 12.1254 35.9998H8.50036C8.46911 35.9978 8.43786 35.9978 8.40661 35.9998C8.14098 36.0115 7.89101 36.1287 7.71326 36.3259C7.53357 36.5212 7.44177 36.781 7.45349 37.0466C7.46521 37.3123 7.5824 37.5622 7.77966 37.74C7.97497 37.9197 8.23474 38.0115 8.50036 37.9998H12.1254C12.5824 39.9978 14.3695 41.4998 16.5004 41.4998C18.6312 41.4998 20.4183 39.9978 20.8754 37.9998H42.5004C42.7679 38.0037 43.0258 37.9001 43.2172 37.7126C43.4066 37.5232 43.514 37.2673 43.514 36.9997C43.514 36.7322 43.4066 36.4763 43.2172 36.2868C43.0258 36.0993 42.7679 35.9958 42.5004 35.9997H20.8754C20.4125 34.0095 18.6254 32.4998 16.5004 32.4998ZM16.5004 34.4998C17.893 34.4998 19.0004 35.6072 19.0004 36.9998C19.0004 38.3924 17.893 39.4998 16.5004 39.4998C15.1078 39.4998 14.0004 38.3924 14.0004 36.9998C14.0004 35.6072 15.1078 34.4998 16.5004 34.4998Z" fill="#FF00C5"/>
</svg>
