<svg width="32" height="33" viewBox="0 0 32 33" fill="none" xmlns="http://www.w3.org/2000/svg">
<path d="M29.0001 4.36011C29.0001 4.09489 28.8948 3.84054 28.7072 3.653C28.5197 3.46546 28.2653 3.36011 28.0001 3.36011C22.4901 3.36011 16.8364 9.57386 13.6964 13.6889C12.5749 13.3454 11.3886 13.2698 10.2327 13.468C9.0767 13.6662 7.98334 14.1327 7.04038 14.8301C6.09743 15.5275 5.33118 16.4363 4.80317 17.4836C4.27515 18.5308 4.0001 19.6873 4.00011 20.8601C4.00011 24.7201 1.55761 26.4514 1.44136 26.5314C1.26397 26.6511 1.12969 26.8247 1.05828 27.0265C0.986864 27.2282 0.982076 27.4476 1.04462 27.6523C1.10716 27.857 1.23374 28.0362 1.40573 28.1637C1.57773 28.2911 1.78606 28.3599 2.00011 28.3601H11.5001C12.6729 28.3601 13.8294 28.0851 14.8767 27.5571C15.9239 27.029 16.8327 26.2628 17.5301 25.3198C18.2275 24.3769 18.6941 23.2835 18.8923 22.1276C19.0905 20.9716 19.0148 19.7853 18.6714 18.6639C22.7876 15.5239 29.0001 9.87011 29.0001 4.36011ZM11.5001 26.3601H4.32886C5.17261 25.1614 6.00011 23.3501 6.00011 20.8601C6.00011 19.7723 6.32268 18.7089 6.92703 17.8045C7.53137 16.9 8.39036 16.1951 9.39535 15.7788C10.4003 15.3625 11.5062 15.2536 12.5731 15.4658C13.64 15.678 14.62 16.2018 15.3892 16.971C16.1584 17.7402 16.6822 18.7202 16.8944 19.7871C17.1066 20.854 16.9977 21.9599 16.5814 22.9649C16.1652 23.9699 15.4602 24.8288 14.5557 25.4332C13.6513 26.0375 12.5879 26.3601 11.5001 26.3601ZM15.5526 14.5539C15.9809 13.9989 16.4014 13.4759 16.8139 12.9851C17.8235 13.6672 18.693 14.5367 19.3751 15.5464C18.8834 15.958 18.3605 16.3784 17.8064 16.8076C17.2236 15.9049 16.4553 15.1366 15.5526 14.5539ZM20.8901 14.2189C20.1352 13.1536 19.2054 12.2238 18.1401 11.4689C22.1126 7.15261 25.1089 5.84386 26.8776 5.48011C26.5214 7.25011 25.2064 10.2464 20.8901 14.2189Z" fill="#FF00C5"/>
</svg>
